<!-- Generated by IcoMoon.io -->
<svg version="1.1" xmlns="http://www.w3.org/2000/svg" width="20" height="20" viewBox="0 0 768 768">
<title></title>
<g id="icomoon-ignore">
</g>
<path fill="#fff" d="M192 96c-17.664 0-32 14.336-32 32v512c0 17.664 14.336 32 32 32h128c17.664 0 32-14.336 32-32v-512c0-17.664-14.336-32-32-32zM224 160h64v448h-64zM448 96c-17.664 0-32 14.336-32 32v512c0 17.664 14.336 32 32 32h128c17.664 0 32-14.336 32-32v-512c0-17.664-14.336-32-32-32zM480 160h64v448h-64z"></path>
</svg>
